<?xml version="1.0" encoding="UTF-8" standalone="no"?>
<!-- Created with Inkscape (http://www.inkscape.org/) -->

<svg
   version="1.1"
   id="svg1"
   xml:space="preserve"
   width="826.7002"
   height="422"
   xmlns:inkscape="http://www.inkscape.org/namespaces/inkscape"
   xmlns:sodipodi="http://sodipodi.sourceforge.net/DTD/sodipodi-0.dtd"
   xmlns="http://www.w3.org/2000/svg"
   xmlns:svg="http://www.w3.org/2000/svg"><defs
     id="defs1"><clipPath
       id="clip0"><rect
         width="452"
         height="422"
         fill="#ffffff"
         id="rect34"
         x="0"
         y="0" /></clipPath><mask
       id="mask0"
       mask-type="alpha"
       maskUnits="userSpaceOnUse"
       x="56"
       y="239"
       width="12"
       height="14"><path
         d="m 56,239.001 h 11.556 v 13.013 H 56 Z"
         fill="#ffffff"
         id="path26" /></mask><mask
       id="mask1"
       mask-type="alpha"
       maskUnits="userSpaceOnUse"
       x="89"
       y="242"
       width="9"
       height="11"><path
         d="m 89.1742,242.636 h 8.432 v 9.513 h -8.432 z"
         fill="#ffffff"
         id="path30" /></mask><mask
       id="mask2"
       mask-type="alpha"
       maskUnits="userSpaceOnUse"
       x="98"
       y="249"
       width="4"
       height="4"><path
         d="m 98.8846,249.431 h 2.7264 v 2.709 h -2.7264 z"
         fill="#ffffff"
         id="path32" /></mask></defs><sodipodi:namedview
     id="namedview1"
     pagecolor="#505050"
     bordercolor="#eeeeee"
     borderopacity="1"
     inkscape:showpageshadow="0"
     inkscape:pageopacity="0"
     inkscape:pagecheckerboard="0"
     inkscape:deskcolor="#d1d1d1" /><inkscape:clipboard
     min="-555.69003,-427.40991"
     max="271.01018,-5.4099203"
     geom-min="-555.31208,-426.40991"
     geom-max="270.63223,175.15008" /><g
     id="g1"
     transform="matrix(3.7795276,0,0,3.7795276,555.69004,427.40992)"><g
       clip-path="url(#clip0)"
       id="g34"
       transform="matrix(0.26458333,0,0,0.26458333,-97.508802,-113.08554)"><path
         d="M 450.819,460.017 V 562.24 c 0,22.233 -18.088,40.32 -40.322,40.32 H 218.322 C 196.088,602.56 178,584.473 178,562.24 V 117.322 C 178,95.0887 196.088,77 218.322,77 h 192.175 c 22.234,0 40.322,18.0887 40.322,40.322 v 330.472"
         fill="#f7f7f7"
         id="path1" /><path
         d="M 450.819,460.017 V 562.24 c 0,22.233 -18.088,40.32 -40.322,40.32 H 218.322 C 196.088,602.56 178,584.473 178,562.24 V 117.322 C 178,95.0887 196.088,77 218.322,77 h 192.175 c 22.234,0 40.322,18.0887 40.322,40.322 v 330.472"
         stroke="#4a4a4a"
         stroke-width="2"
         stroke-linecap="round"
         stroke-linejoin="round"
         id="path2"
         style="fill:#e5e5e5;fill-opacity:1;stroke-width:1.99937;stroke-dasharray:none" /><path
         d="m 190.991,176.427 v -59.106 c 0,-15.093 12.236,-27.3292 27.33,-27.3292 h 33.553 c 4.998,0 9.119,3.9222 9.363,8.9144 0.417,7.8148 6.876,13.9388 14.703,13.9388 h 76.939 c 7.827,0 14.286,-6.124 14.702,-13.9388 0.246,-4.9922 4.366,-8.9144 9.363,-8.9144 h 33.555 c 15.093,0 27.329,12.2362 27.329,27.3292 v 444.92 c 0,15.093 -12.236,27.328 -27.329,27.328 H 218.321 c -15.094,0 -27.33,-12.235 -27.33,-27.328 V 181.92"
         fill="#ffffff"
         id="path3"
         style="stroke:#000000" /><path
         d="m 190.993,225.979 v -2.856"
         stroke="#4a4a4a"
         stroke-width="2"
         stroke-linecap="round"
         stroke-linejoin="round"
         id="path5" /><path
         d="m 325.37,99.7099 h -38.927 c -1.687,0 -3.053,-1.3665 -3.053,-3.053 0,-1.6853 1.366,-3.053 3.053,-3.053 h 38.927 c 1.686,0 3.053,1.3677 3.053,3.053 0,1.6865 -1.367,3.053 -3.053,3.053 z"
         fill="#ececec"
         id="path6" /><path
         d="m 340.705,101.381 c -2.609,0 -4.724,-2.1139 -4.724,-4.724 0,-2.6089 2.115,-4.7241 4.724,-4.7241 2.609,0 4.724,2.1152 4.724,4.7241 0,2.6101 -2.115,4.724 -4.724,4.724 z"
         fill="#ececec"
         id="path7" /><path
         d="m 373.007,235.6 c 0,32.364 -26.289,58.6 -58.717,58.6 -32.429,0 -58.718,-26.236 -58.718,-58.6 0,-32.364 26.289,-58.6 58.718,-58.6 32.428,0 58.717,26.236 58.717,58.6 z"
         fill="#ececec"
         id="path8" /><path
         style="fill:#000000;fill-opacity:1;stroke:none;stroke-width:3.77953"
         d="m 275.86429,230.34175 h -0.13213 c -0.0152,-1.80118 -0.0681,-3.41588 0.5846,-5.15224 0.19907,-0.52964 0.84092,-1.52571 0.39062,-2.05594 -0.91227,-1.07415 -3.22934,1.98055 -3.7495,2.58439 -2.94081,3.41386 -4.83066,7.49854 -5.14041,12.02188 -0.35768,5.22328 2.51044,10.34662 7.12203,12.77222 1.74,0.91521 3.88687,0.92292 5.54663,1.78328 1.11285,0.57683 1.58394,3.72269 2.77254,3.63093 0.9548,-0.0736 0.97204,-1.714 1.72353,-2.2021 1.32734,-0.86216 2.98777,-1.22807 4.35714,-2.06206 1.52803,-0.93066 2.5978,-2.22637 3.83114,-3.48571 -0.32418,1.12524 -1.04121,1.93813 -1.98163,2.61508 -0.41146,0.29622 -1.16934,0.70468 -0.9694,1.3338 0.28867,0.90834 1.49248,0.29524 2.02628,0.0432 1.77976,-0.83997 3.4587,-1.83593 4.88802,-3.20474 3.8275,-3.66554 4.96487,-9.27329 4.46926,-14.39463 -0.23119,-2.38899 -1.00917,-4.96634 -2.27959,-7.00175 -0.40434,-0.64781 -1.35827,-2.14788 -2.23555,-1.24536 -0.79265,0.81548 -0.49296,2.70108 -0.732,3.75542 -0.49188,2.1695 -1.51134,4.27111 -2.80955,6.07697 -2.78091,3.86841 -8.06706,6.86428 -8.96289,11.88979 -0.7666,-0.78999 -1.12365,-2.16818 -1.56685,-3.17061 -0.52585,-1.18933 -1.17786,-2.40764 -1.41028,-3.69904 -0.50072,-2.78212 0.97416,-5.57403 2.84502,-7.53018 -0.006,0.80252 -0.18531,1.57459 -0.0759,2.37794 0.0669,0.49126 0.12051,0.99039 0.30906,1.4532 0.97478,2.39243 3.45848,0.76391 4.787,-0.32556 2.49959,-2.04984 4.28845,-5.47061 4.71778,-8.65777 0.80676,-5.98897 -2.05054,-11.81408 -6.83151,-15.4072 -1.18511,-0.89064 -2.42402,-1.77526 -3.69905,-2.53206 -0.49267,-0.29245 -1.14028,-0.61468 -1.66532,-0.19382 -0.58313,0.46759 -0.35097,1.27083 -0.19804,1.88358 0.40593,1.62667 0.68326,3.19967 0.51987,4.88802 -0.50677,5.23675 -4.53002,8.62145 -6.45089,13.21086 m 7.7944,-17.96677 c 1.90743,1.28676 3.86647,2.59749 5.3768,4.35958 3.46677,4.04466 4.92581,9.81673 2.75787,14.79617 -0.74812,1.71833 -1.92682,3.37181 -3.37876,4.56243 -0.44746,0.36694 -1.11283,0.98576 -1.71497,1.04332 -0.78961,0.0754 -0.80357,-0.97447 -0.79305,-1.51039 0.0267,-1.37032 0.47855,-2.73861 0.49612,-4.09536 0.006,-0.45215 -0.26182,-0.94973 -0.76299,-0.98469 -0.67372,-0.0472 -1.20336,0.80335 -1.57399,1.2489 -1.13463,1.36398 -2.27673,2.76408 -3.07448,4.35957 -1.85435,3.70869 -0.36915,6.91634 1.08357,10.43658 0.80592,1.9529 1.94911,4.35546 1.05545,6.47332 -1.06209,-1.0998 -1.90681,-2.36879 -3.0385,-3.42298 -2.27322,-2.11755 -5.0707,-4.10806 -5.88169,-7.27781 -1.95581,-7.64435 5.78019,-14.33135 8.4678,-20.74104 0.78674,-1.87631 1.24504,-3.90733 1.24504,-5.94488 0,-0.99094 -0.54491,-2.38737 -0.26422,-3.30272 m -9.37971,14.26774 c -0.0244,1.18385 -0.11913,2.24591 0.0373,3.43482 0.0882,0.67118 0.48239,1.5902 0.37788,2.24584 -0.15599,0.97857 -0.98239,2.08258 -1.33281,3.03849 -0.94275,2.57175 -1.34388,5.57671 -0.32213,8.19074 1.10083,2.8163 3.58149,4.31229 5.33521,6.60542 -1.18924,-0.20452 -2.4038,-0.78753 -3.43483,-1.4009 -7.68684,-4.57295 -7.01107,-16.6025 -0.66054,-22.11441 m 34.21612,0.92476 v 18.7594 l 3.35511,-0.13574 0.21183,-1.97795 v -5.54858 h 4.75591 l 0.13213,-3.03849 h -4.88802 v -5.15223 h 5.68066 l -0.13578,-2.69456 -2.37429,-0.21191 h -6.73753 m -10.17237,1.32108 c 2.6646,4.58258 2.47189,11.4016 -0.0232,15.98513 -0.82384,1.5132 -2.13902,3.58208 -3.80761,4.22748 0.27036,-0.70084 1.69617,-3.49465 0.13007,-3.60495 -1.00632,-0.0709 -2.653,1.75258 -3.29547,2.41649 -1.78974,1.84941 -3.63744,3.35207 -6.21431,3.96273 0.54872,-6.89497 6.46745,-9.99402 9.97155,-15.19247 0.98167,-1.45637 1.80689,-3.08396 2.34819,-4.75593 0.2944,-0.90931 0.31775,-2.29326 0.89113,-3.03848 m 35.14086,5.41644 h -0.1321 v -1.71741 c -0.6885,0 -2.51816,-0.32575 -2.9965,0.25012 -0.5519,0.66445 -0.17411,2.74445 -0.17411,3.58102 v 9.90813 c 0.69675,0 2.79458,0.35559 3.18936,-0.33984 0.36773,-0.64779 0.11336,-1.96967 0.11336,-2.69866 0,-2.17442 -0.44102,-4.9093 0.20061,-7.00173 0.43013,-1.40273 2.31901,-1.85774 3.02647,-0.39583 0.73418,1.51715 0.20774,4.27773 0.20774,5.94438 v 4.49169 c 0.66082,0 2.73056,0.33916 3.16693,-0.21191 0.46096,-0.58202 0.13578,-2.36859 0.13578,-3.09089 v -5.9449 c 0,-1.2532 -0.0114,-2.67069 -0.86258,-3.68671 -1.56185,-1.86457 -5.14279,-1.55268 -5.87496,0.91243 m -15.45681,-1.84956 c 0.071,1.62782 0.76001,3.33458 1.22598,4.88803 0.78606,2.62047 1.5738,5.27377 2.24056,7.92651 0.52362,2.0833 -0.73172,3.48928 -2.80599,2.90639 v 2.90638 c 1.59788,0.2977 3.48878,0.4448 4.74357,-0.80508 1.45985,-1.45416 1.77217,-3.89762 2.31466,-5.80033 1.12713,-3.95337 2.12677,-7.97568 3.37834,-11.88979 -0.66609,-0.1969 -2.62239,-0.4391 -3.20985,0.003 -0.49572,0.37363 -0.54241,1.54571 -0.69743,2.11006 -0.56588,2.06004 -1.33524,4.34417 -1.50917,6.47331 l -1.75614,-6.34121 -0.71794,-2.24216 -3.20659,-0.13575 m 23.77955,0 v 2.77428 h 4.88801 c -1.88155,3.53514 -5.02013,7.003 -5.02013,11.09713 h 9.11549 v -2.77428 l -5.15223,-0.13216 3.09456,-5.41646 1.60936,-3.0385 0.052,-2.51007 z"
         id="path9" /><path
         d="M 382.793,352.8 H 245.786 c -5.382,0 -9.786,-4.395 -9.786,-9.767 0,-5.372 4.404,-9.767 9.786,-9.767 h 137.007 c 5.383,0 9.786,4.395 9.786,9.767 0,5.372 -4.403,9.767 -9.786,9.767 z"
         fill="#ececec"
         id="path12" /><path
         d="m 343.648,391.866 h -58.717 c -5.382,0 -9.786,-4.395 -9.786,-9.766 0,-5.372 4.404,-9.767 9.786,-9.767 h 58.717 c 5.383,0 9.786,4.395 9.786,9.767 0,5.371 -4.403,9.766 -9.786,9.766 z"
         fill="#ececec"
         id="path13" /><path
         d="M 273.819,384.017 V 486.24 c 0,22.233 -18.088,40.32 -40.322,40.32 H 41.3217 C 19.0875,526.56 1,508.473 1,486.24 V 41.3217 C 1,19.0887 19.0875,1 41.3217,1 H 233.497 c 22.234,0 40.322,18.0887 40.322,40.3217 V 371.794"
         fill="#f7f7f7"
         id="path14" /><path
         d="M 273.819,384.017 V 486.24 c 0,22.233 -18.088,40.32 -40.322,40.32 H 41.3217 C 19.0875,526.56 1,508.473 1,486.24 V 41.3217 C 1,19.0887 19.0875,1 41.3217,1 H 233.497 c 22.234,0 40.322,18.0887 40.322,40.3217 V 371.794"
         stroke="#4a4a4a"
         stroke-width="2"
         stroke-linecap="round"
         stroke-linejoin="round"
         id="path15"
         style="fill:#e5e5e5;fill-opacity:1" /><path
         d="m 273.819,377.287 v 1.703"
         stroke="#4a4a4a"
         stroke-width="2"
         stroke-linecap="round"
         stroke-linejoin="round"
         id="path16" /><path
         d="M 13.9915,100.427 V 41.3209 c 0,-15.0924 12.2355,-27.3291 27.3291,-27.3291 h 33.5532 c 4.9981,0 9.1187,3.9222 9.3632,8.9144 0.4169,7.8149 6.876,13.9386 14.7027,13.9386 h 76.9393 c 7.827,0 14.286,-6.1237 14.702,-13.9386 0.246,-4.9922 4.366,-8.9144 9.363,-8.9144 h 33.555 c 15.093,0 27.329,12.2367 27.329,27.3291 V 486.241 c 0,15.093 -12.236,27.328 -27.329,27.328 H 41.3206 c -15.0936,0 -27.3291,-12.235 -27.3291,-27.328 V 105.92"
         fill="#ffffff"
         id="path17"
         style="stroke:#000000" /><path
         d="m 56.3942,103.992 c -3.0682,0 -5.9907,0.623 -8.6484,1.75 -7.9626,3.344 -13.6524,11.166 -13.8067,20.267 -0.0394,2.333 0.2781,4.585 0.9021,6.707 0,0 1.116,3.413 -1.0237,8.059 -1.0375,2.253 -2.3967,4.065 -3.5148,5.33 -0.727,0.822 -0.0934,2.115 1.0029,2.047 1.583,-0.099 3.5605,-0.374 5.396,-1.058 2.3286,-0.867 3.9164,-1.983 4.7635,-2.681 0.4392,-0.362 1.065,-0.381 1.5217,-0.041 2.5558,1.898 5.5321,3.262 8.7617,3.935 0.4083,0.085 0.5563,0.109 0.7036,0.135 1.2803,0.23 2.5959,0.356 3.9421,0.356 h 91.0778 c 12.249,0 22.178,-9.93 22.178,-22.18 v -0.446 c 0,-12.25 -9.929,-22.18 -22.178,-22.18 z"
         fill="#ececec"
         id="path18" /><path
         d="m 218.247,166.992 c 3.069,0 5.991,0.623 8.649,1.75 7.962,3.344 13.652,11.166 13.806,20.267 0.04,2.333 -0.278,4.585 -0.902,6.707 0,0 -1.116,3.413 1.024,8.059 1.037,2.253 2.397,4.065 3.515,5.33 0.727,0.822 0.093,2.115 -1.003,2.047 -1.583,-0.099 -3.561,-0.374 -5.396,-1.058 -2.329,-0.867 -3.917,-1.983 -4.764,-2.681 -0.439,-0.362 -1.065,-0.381 -1.521,-0.041 -2.556,1.898 -5.532,3.262 -8.762,3.935 -0.408,0.085 -0.556,0.109 -0.704,0.135 -1.28,0.23 -2.596,0.356 -3.942,0.356 h -61.078 c -12.248,0 -22.178,-9.93 -22.178,-22.18 v -0.446 c 0,-12.25 9.93,-22.18 22.178,-22.18 z"
         fill="#ececec"
         id="path19" /><path
         d="m 56.3942,223.502 c -3.0682,0 -5.9907,0.624 -8.6484,1.751 -7.9626,3.343 -13.6524,11.166 -13.8067,20.266 -0.0394,2.333 0.2781,4.586 0.9021,6.708 0,0 1.116,3.413 -1.0237,8.059 -1.0375,2.253 -2.3967,4.065 -3.5148,5.329 -0.727,0.823 -0.0934,2.116 1.0029,2.048 1.583,-0.1 3.5605,-0.374 5.396,-1.058 2.3286,-0.867 3.9164,-1.984 4.7635,-2.681 0.4392,-0.362 1.065,-0.381 1.5217,-0.041 2.5558,1.898 5.5321,3.261 8.7617,3.935 0.4083,0.085 0.5563,0.109 0.7036,0.135 1.2803,0.23 2.5959,0.356 3.9421,0.356 h 41.0782 c 12.2486,0 22.1776,-9.93 22.1776,-22.18 v -0.446 c 0,-12.25 -9.929,-22.181 -22.1776,-22.181 z"
         fill="#ff0083"
         id="path20"
         style="fill:#319eea;fill-opacity:1" /><path
         d="m 13.9927,149.979 v -2.856"
         stroke="#4a4a4a"
         stroke-width="2"
         stroke-linecap="round"
         stroke-linejoin="round"
         id="path22" /><path
         d="m 148.37,23.7099 h -38.927 c -1.687,0 -3.053,-1.3665 -3.053,-3.053 0,-1.6853 1.366,-3.053 3.053,-3.053 h 38.927 c 1.686,0 3.053,1.3677 3.053,3.053 0,1.6865 -1.367,3.053 -3.053,3.053 z"
         fill="#ececec"
         id="path23" /><path
         d="m 163.705,25.3811 c -2.609,0 -4.724,-2.114 -4.724,-4.7241 0,-2.6089 2.115,-4.7241 4.724,-4.7241 2.609,0 4.724,2.1152 4.724,4.7241 0,2.6101 -2.115,4.7241 -4.724,4.7241 z"
         fill="#ececec"
         id="path24" /><path
         opacity="0.031342"
         d="m 275,428 h 20 V 77.0004 h -20 z"
         fill="#000000"
         id="path25" /><mask
         id="mask4"
         mask-type="alpha"
         maskUnits="userSpaceOnUse"
         x="56"
         y="239"
         width="12"
         height="14"><path
           d="m 56,239.001 h 11.556 v 13.013 H 56 Z"
           fill="#ffffff"
           id="path4" /></mask><g
         mask="url(#mask0)"
         id="g27"><path
           d="m 65.081,245.507 c 0,-0.714 -0.097,-1.354 -0.288,-1.922 -0.192,-0.566 -0.465,-1.047 -0.819,-1.439 -0.354,-0.394 -0.785,-0.695 -1.291,-0.906 -0.508,-0.21 -1.08,-0.314 -1.715,-0.314 h -2.53 v 9.162 h 2.53 c 0.635,0 1.207,-0.105 1.715,-0.315 0.506,-0.21 0.937,-0.512 1.291,-0.905 0.354,-0.392 0.627,-0.873 0.819,-1.44 0.191,-0.567 0.288,-1.207 0.288,-1.921 z m 2.475,0 c 0,0.954 -0.16,1.83 -0.477,2.628 -0.318,0.798 -0.766,1.485 -1.342,2.06 -0.575,0.577 -1.268,1.024 -2.078,1.342 -0.81,0.318 -1.707,0.477 -2.691,0.477 H 56 V 239 h 4.968 c 0.984,0 1.881,0.16 2.691,0.482 0.81,0.32 1.503,0.767 2.078,1.34 0.576,0.574 1.024,1.259 1.342,2.057 0.317,0.798 0.477,1.674 0.477,2.628 z"
           fill="#ffffff"
           id="path27"
           inkscape:transform-center-x="1.1047806"
           inkscape:transform-center-y="-1.4676305" /><rect
           style="fill:#000000;fill-opacity:0.0353458;stroke:#000003;stroke-width:5;stroke-linejoin:round;stroke-miterlimit:4.5;stroke-opacity:0.993841;paint-order:markers fill stroke"
           id="rect1"
           width="44.652611"
           height="21.398211"
           x="52.456978"
           y="234.52075"
           ry="0.53169578" /></g><path
         d="m 73.2705,250.439 c 0.769,0 1.337,-0.258 1.706,-0.773 0.369,-0.517 0.554,-1.273 0.554,-2.269 0,-0.996 -0.185,-1.755 -0.554,-2.276 -0.369,-0.523 -0.937,-0.784 -1.706,-0.784 -0.779,0 -1.355,0.263 -1.728,0.788 -0.372,0.525 -0.557,1.282 -0.557,2.272 0,0.99 0.185,1.745 0.557,2.264 0.373,0.519 0.949,0.778 1.728,0.778 z m 0,-7.803 c 0.69,0 1.315,0.112 1.877,0.333 0.561,0.222 1.039,0.537 1.436,0.946 0.395,0.407 0.702,0.905 0.917,1.493 0.216,0.589 0.325,1.245 0.325,1.971 0,0.732 -0.109,1.392 -0.325,1.98 -0.215,0.588 -0.522,1.089 -0.917,1.503 -0.397,0.414 -0.875,0.732 -1.436,0.954 -0.562,0.222 -1.187,0.333 -1.877,0.333 -0.689,0 -1.316,-0.111 -1.881,-0.333 -0.563,-0.222 -1.045,-0.54 -1.444,-0.954 -0.4,-0.414 -0.708,-0.915 -0.927,-1.503 -0.22,-0.588 -0.329,-1.248 -0.329,-1.98 0,-0.726 0.109,-1.382 0.329,-1.971 0.219,-0.588 0.527,-1.086 0.927,-1.493 0.399,-0.409 0.881,-0.724 1.444,-0.946 0.565,-0.221 1.192,-0.333 1.881,-0.333 z"
         fill="#ffffff"
         id="path28" /><path
         d="m 79.5614,252.014 v -9.234 h 1.359 c 0.288,0 0.477,0.135 0.567,0.405 l 0.153,0.729 c 0.187,-0.192 0.383,-0.366 0.59,-0.522 0.207,-0.156 0.426,-0.291 0.657,-0.405 0.231,-0.114 0.478,-0.201 0.742,-0.261 0.264,-0.06 0.552,-0.09 0.865,-0.09 0.504,0 0.95,0.085 1.34,0.257 0.39,0.171 0.715,0.41 0.977,0.72 0.261,0.308 0.459,0.677 0.594,1.106 0.135,0.43 0.202,0.902 0.202,1.418 v 5.877 h -2.223 v -5.877 c 0,-0.563 -0.131,-1 -0.391,-1.31 -0.261,-0.308 -0.653,-0.463 -1.175,-0.463 -0.384,0 -0.743,0.088 -1.079,0.261 -0.337,0.174 -0.655,0.411 -0.954,0.711 v 6.678 z"
         fill="#ffffff"
         id="path29" /><mask
         id="mask10"
         mask-type="alpha"
         maskUnits="userSpaceOnUse"
         x="89"
         y="242"
         width="9"
         height="11"><path
           d="m 89.1742,242.636 h 8.432 v 9.513 h -8.432 z"
           fill="#ffffff"
           id="path10" /></mask><g
         mask="url(#mask1)"
         id="g31"><path
           d="m 93.6552,244.229 c -0.647,0 -1.154,0.184 -1.521,0.549 -0.366,0.366 -0.6,0.886 -0.702,1.557 h 4.176 c 0,-0.288 -0.039,-0.559 -0.117,-0.814 -0.077,-0.255 -0.197,-0.479 -0.359,-0.671 -0.163,-0.191 -0.367,-0.344 -0.613,-0.454 -0.246,-0.111 -0.534,-0.167 -0.864,-0.167 z m -0.045,-1.593 c 0.582,0 1.118,0.093 1.607,0.28 0.489,0.185 0.911,0.457 1.264,0.814 0.355,0.356 0.63,0.795 0.828,1.313 0.199,0.52 0.297,1.112 0.297,1.778 0,0.168 -0.008,0.307 -0.022,0.419 -0.015,0.111 -0.042,0.198 -0.081,0.26 -0.039,0.064 -0.091,0.109 -0.158,0.135 -0.066,0.028 -0.15,0.041 -0.252,0.041 h -5.706 c 0.067,0.949 0.322,1.644 0.765,2.088 0.444,0.444 1.032,0.666 1.765,0.666 0.359,0 0.67,-0.042 0.931,-0.126 0.261,-0.084 0.489,-0.177 0.684,-0.279 0.195,-0.102 0.366,-0.194 0.513,-0.278 0.147,-0.084 0.29,-0.126 0.427,-0.126 0.09,0 0.168,0.017 0.235,0.053 0.065,0.036 0.123,0.087 0.171,0.154 l 0.647,0.809 c -0.246,0.288 -0.521,0.529 -0.828,0.725 -0.306,0.195 -0.625,0.35 -0.958,0.468 -0.333,0.117 -0.672,0.199 -1.017,0.248 -0.345,0.047 -0.679,0.071 -1.004,0.071 -0.642,0 -1.239,-0.107 -1.791,-0.319 -0.551,-0.213 -1.032,-0.529 -1.44,-0.946 -0.407,-0.417 -0.728,-0.932 -0.963,-1.548 -0.233,-0.614 -0.35,-1.327 -0.35,-2.137 0,-0.63 0.101,-1.222 0.305,-1.778 0.204,-0.554 0.497,-1.038 0.878,-1.448 0.381,-0.411 0.846,-0.737 1.395,-0.976 0.549,-0.241 1.169,-0.361 1.858,-0.361 z"
           fill="#ffffff"
           id="path31" /></g><mask
         id="mask11"
         mask-type="alpha"
         maskUnits="userSpaceOnUse"
         x="98"
         y="249"
         width="4"
         height="4"><path
           d="m 98.8846,249.431 h 2.7264 v 2.709 h -2.7264 z"
           fill="#ffffff"
           id="path11" /></mask><g
         mask="url(#mask2)"
         id="g33"><path
           d="m 98.8846,250.79 c 0,-0.187 0.034,-0.363 0.104,-0.531 0.068,-0.168 0.164,-0.313 0.287,-0.432 0.123,-0.12 0.268,-0.217 0.436,-0.288 0.168,-0.072 0.3494,-0.108 0.5404,-0.108 0.187,0 0.363,0.036 0.531,0.108 0.168,0.071 0.312,0.168 0.432,0.288 0.12,0.119 0.217,0.264 0.288,0.432 0.072,0.168 0.109,0.344 0.109,0.531 0,0.191 -0.037,0.37 -0.109,0.535 -0.071,0.165 -0.168,0.308 -0.288,0.428 -0.12,0.12 -0.264,0.214 -0.432,0.283 -0.168,0.069 -0.344,0.104 -0.531,0.104 -0.191,0 -0.3724,-0.035 -0.5404,-0.104 -0.168,-0.069 -0.313,-0.163 -0.436,-0.283 -0.123,-0.12 -0.219,-0.263 -0.287,-0.428 -0.07,-0.165 -0.104,-0.344 -0.104,-0.535 z"
           fill="#ffffff"
           id="path33" /></g><text
         xml:space="preserve"
         style="font-style:normal;font-weight:normal;font-size:40px;line-height:1.25;font-family:sans-serif;fill:#000000;fill-opacity:1;stroke:none"
         x="-113.61965"
         y="340.88275"
         id="text9"><tspan
           sodipodi:role="line"
           id="tspan9"
           x="-113.61965"
           y="340.88275">Feit</tspan></text></g><rect
       style="fill:#319eea;fill-opacity:1;stroke:none;stroke-width:0.529;stroke-linejoin:round;stroke-miterlimit:4.5;stroke-dasharray:none;stroke-opacity:1;paint-order:markers fill stroke"
       id="rect10"
       width="17.161163"
       height="7.8325434"
       x="-85.03215"
       y="-51.774906"
       ry="0.14067784" /><text
       xml:space="preserve"
       style="font-style:normal;font-weight:normal;font-size:4.43208px;line-height:1.25;font-family:sans-serif;fill:#ffffff;fill-opacity:1;stroke:none;stroke-width:0.264583"
       x="-84.690544"
       y="-46.285076"
       id="text10"><tspan
         sodipodi:role="line"
         id="tspan10"
         style="fill:#ffffff;stroke-width:0.264583"
         x="-84.690544"
         y="-46.285076">Pronto!</tspan></text><text
       xml:space="preserve"
       style="font-style:normal;font-weight:normal;font-size:8.24632px;line-height:1.15;font-family:sans-serif;fill:#4a4a4a;fill-opacity:1;stroke:none;stroke-width:0.2;stroke-dasharray:none;stroke-opacity:1"
       x="-126.00573"
       y="-89.26622"
       id="text11"
       transform="scale(1.0005675,0.99943282)"><tspan
         sodipodi:role="line"
         id="tspan11"
         style="font-style:normal;font-variant:normal;font-weight:normal;font-stretch:normal;font-size:8.24632px;line-height:1.15;font-family:sans-serif;-inkscape-font-specification:sans-serif;text-align:center;text-anchor:middle;fill:#4a4a4a;fill-opacity:1;stroke:#4a4a4a;stroke-width:0.2;stroke-dasharray:none;stroke-opacity:1"
         x="-126.00573"
         y="-89.26622">Faça sua </tspan><tspan
         sodipodi:role="line"
         style="font-style:normal;font-variant:normal;font-weight:normal;font-stretch:normal;font-size:8.24632px;line-height:1.15;font-family:sans-serif;-inkscape-font-specification:sans-serif;text-align:center;text-anchor:middle;fill:#4a4a4a;fill-opacity:1;stroke:#4a4a4a;stroke-width:0.2;stroke-dasharray:none;stroke-opacity:1"
         x="-126.00573"
         y="-79.782951"
         id="tspan12">Simulação</tspan></text><text
       xml:space="preserve"
       style="font-style:normal;font-weight:normal;font-size:8.24632px;line-height:1.15;font-family:sans-serif;fill:#4a4a4a;fill-opacity:1;stroke:none;stroke-width:0.2;stroke-dasharray:none;stroke-opacity:1"
       x="47.558033"
       y="-95.545998"
       id="text11-1"
       transform="scale(1.0005675,0.99943282)"><tspan
         sodipodi:role="line"
         style="font-style:normal;font-variant:normal;font-weight:normal;font-stretch:normal;font-size:8.24632px;line-height:1.15;font-family:sans-serif;-inkscape-font-specification:sans-serif;text-align:center;text-anchor:middle;fill:#4a4a4a;fill-opacity:1;stroke:#4a4a4a;stroke-width:0.2;stroke-dasharray:none;stroke-opacity:1"
         x="47.558033"
         y="-95.545998"
         id="tspan12-5">Sem Custos</tspan></text><path
       d="m -113.24,-59.244301 c -0.27378,0.128121 -0.59519,0.01288 -0.71826,-0.25776 -0.12243,-0.271188 -4.7e-4,-0.594744 0.2727,-0.723467 l 2.2559,-1.05938 c -3.08813,-0.752184 -5.21489,-2.029938 -6.65479,-3.472338 -1.69388,-1.692625 -2.4286,-3.591904 -2.73415,-5.059177 -0.30643,-1.469732 -0.19254,-2.514153 -0.18874,-2.553996 0.0334,-0.298107 0.30207,-0.518889 0.60001,-0.491278 0.12886,0.01191 0.24288,0.0686 0.32748,0.1532 0.11033,0.110403 0.17078,0.268374 0.15222,0.437193 -0.008,0.08078 -0.0904,1.039859 0.19931,2.33697 0.29156,1.298635 0.94777,2.929204 2.42038,4.401807 1.29855,1.297296 3.2394,2.485492 6.18077,3.198157 l -0.97874,-2.204074 c -0.1208,-0.271667 0.005,-0.594795 0.27869,-0.721216 0.21316,-0.0974 0.45302,-0.04866 0.60695,0.105247 0.0448,0.04473 0.081,0.0979 0.10921,0.159162 l 1.52714,3.442808 c 0.11936,0.270603 -0.003,0.591236 -0.27512,0.718866 z"
       fill="#4a4a4a"
       fill-rule="evenodd"
       id="path1-0"
       style="stroke-width:0.264583"
       inkscape:transform-center-x="-37.97522"
       inkscape:transform-center-y="26.828351" /><path
       d="m 36.225245,-75.945036 c 0.281859,0.131899 0.612744,0.01327 0.739459,-0.26536 0.126079,-0.279186 4.81e-4,-0.612285 -0.280751,-0.744805 l -2.322437,-1.090622 c 3.179203,-0.774365 5.368689,-2.089803 6.851058,-3.57474 1.743828,-1.742543 2.500231,-3.697834 2.814777,-5.208379 0.315471,-1.513076 0.198224,-2.588298 0.194303,-2.629316 -0.03431,-0.306898 -0.310968,-0.53419 -0.61769,-0.505767 -0.132662,0.01227 -0.25006,0.07063 -0.337147,0.157719 -0.113659,0.113658 -0.175819,0.276289 -0.156707,0.450086 0.0083,0.08316 0.09304,1.070526 -0.205201,2.40589 -0.300143,1.336934 -0.975712,3.015589 -2.491746,4.531622 -1.336838,1.335554 -3.334938,2.558791 -6.363041,3.292476 l 1.007594,-2.269077 c 0.124322,-0.279679 -0.0046,-0.612334 -0.286921,-0.742484 -0.219432,-0.100276 -0.466369,-0.0501 -0.624826,0.108352 -0.04605,0.04605 -0.08345,0.10079 -0.112497,0.163854 l -1.572194,3.544341 c -0.122895,0.278582 0.0034,0.60867 0.283241,0.740064 z"
       fill="#4a4a4a"
       fill-rule="evenodd"
       id="path1-4"
       style="stroke-width:0.264582" /></g></svg>
